<mxfile host="app.diagrams.net" modified="2024-04-22T13:24:24.781Z" agent="Mozilla/5.0 (Windows NT 10.0; Win64; x64) AppleWebKit/537.36 (KHTML, like Gecko) Chrome/124.0.0.0 Safari/537.36" etag="geF1UEhs8rMVF_5bb56s" version="24.2.7" type="device">
  <diagram name="Página-1" id="-Jc87rQ7j9H-N3ljl0gi">
    <mxGraphModel dx="2665" dy="962" grid="1" gridSize="15" guides="1" tooltips="1" connect="1" arrows="1" fold="1" page="1" pageScale="1" pageWidth="827" pageHeight="1169" math="0" shadow="0">
      <root>
        <mxCell id="0" />
        <mxCell id="1" parent="0" />
        <mxCell id="hmsVtgDOntfeZ75-fV9C-1" value="User" style="swimlane;fontStyle=0;childLayout=stackLayout;horizontal=1;startSize=30;horizontalStack=0;resizeParent=1;resizeParentMax=0;resizeLast=0;collapsible=1;marginBottom=0;whiteSpace=wrap;html=1;swimlaneFillColor=none;strokeWidth=1;resizeWidth=1;resizeHeight=1;fillColor=#dae8fc;strokeColor=#6c8ebf;" vertex="1" parent="1">
          <mxGeometry x="645" y="300" width="200" height="330" as="geometry" />
        </mxCell>
        <mxCell id="hmsVtgDOntfeZ75-fV9C-2" value="ID" style="text;strokeColor=none;fillColor=none;align=left;verticalAlign=middle;spacingLeft=4;spacingRight=4;overflow=hidden;points=[[0,0.5],[1,0.5]];portConstraint=eastwest;rotatable=0;whiteSpace=wrap;html=1;" vertex="1" parent="hmsVtgDOntfeZ75-fV9C-1">
          <mxGeometry y="30" width="200" height="30" as="geometry" />
        </mxCell>
        <mxCell id="hmsVtgDOntfeZ75-fV9C-4" value="Email" style="text;strokeColor=none;fillColor=none;align=left;verticalAlign=middle;spacingLeft=4;spacingRight=4;overflow=hidden;points=[[0,0.5],[1,0.5]];portConstraint=eastwest;rotatable=0;whiteSpace=wrap;html=1;" vertex="1" parent="hmsVtgDOntfeZ75-fV9C-1">
          <mxGeometry y="60" width="200" height="30" as="geometry" />
        </mxCell>
        <mxCell id="hmsVtgDOntfeZ75-fV9C-3" value="Password" style="text;strokeColor=none;fillColor=none;align=left;verticalAlign=middle;spacingLeft=4;spacingRight=4;overflow=hidden;points=[[0,0.5],[1,0.5]];portConstraint=eastwest;rotatable=0;whiteSpace=wrap;html=1;" vertex="1" parent="hmsVtgDOntfeZ75-fV9C-1">
          <mxGeometry y="90" width="200" height="30" as="geometry" />
        </mxCell>
        <mxCell id="hmsVtgDOntfeZ75-fV9C-14" value="First Name&lt;span style=&quot;white-space: pre;&quot;&gt;&#x9;&lt;/span&gt;" style="text;strokeColor=none;fillColor=none;align=left;verticalAlign=middle;spacingLeft=4;spacingRight=4;overflow=hidden;points=[[0,0.5],[1,0.5]];portConstraint=eastwest;rotatable=0;whiteSpace=wrap;html=1;" vertex="1" parent="hmsVtgDOntfeZ75-fV9C-1">
          <mxGeometry y="120" width="200" height="30" as="geometry" />
        </mxCell>
        <mxCell id="hmsVtgDOntfeZ75-fV9C-58" value="Last Name&lt;span style=&quot;white-space: pre;&quot;&gt;&#x9;&lt;/span&gt;" style="text;strokeColor=none;fillColor=none;align=left;verticalAlign=middle;spacingLeft=4;spacingRight=4;overflow=hidden;points=[[0,0.5],[1,0.5]];portConstraint=eastwest;rotatable=0;whiteSpace=wrap;html=1;" vertex="1" parent="hmsVtgDOntfeZ75-fV9C-1">
          <mxGeometry y="150" width="200" height="30" as="geometry" />
        </mxCell>
        <mxCell id="hmsVtgDOntfeZ75-fV9C-74" value="GenderID" style="text;strokeColor=none;fillColor=none;align=left;verticalAlign=middle;spacingLeft=4;spacingRight=4;overflow=hidden;points=[[0,0.5],[1,0.5]];portConstraint=eastwest;rotatable=0;whiteSpace=wrap;html=1;" vertex="1" parent="hmsVtgDOntfeZ75-fV9C-1">
          <mxGeometry y="180" width="200" height="30" as="geometry" />
        </mxCell>
        <mxCell id="hmsVtgDOntfeZ75-fV9C-113" value="Age" style="text;strokeColor=none;fillColor=none;align=left;verticalAlign=middle;spacingLeft=4;spacingRight=4;overflow=hidden;points=[[0,0.5],[1,0.5]];portConstraint=eastwest;rotatable=0;whiteSpace=wrap;html=1;" vertex="1" parent="hmsVtgDOntfeZ75-fV9C-1">
          <mxGeometry y="210" width="200" height="30" as="geometry" />
        </mxCell>
        <mxCell id="hmsVtgDOntfeZ75-fV9C-50" value="Location" style="text;strokeColor=none;fillColor=none;align=left;verticalAlign=middle;spacingLeft=4;spacingRight=4;overflow=hidden;points=[[0,0.5],[1,0.5]];portConstraint=eastwest;rotatable=0;whiteSpace=wrap;html=1;" vertex="1" parent="hmsVtgDOntfeZ75-fV9C-1">
          <mxGeometry y="240" width="200" height="30" as="geometry" />
        </mxCell>
        <mxCell id="hmsVtgDOntfeZ75-fV9C-119" value="Biography" style="text;strokeColor=none;fillColor=none;align=left;verticalAlign=middle;spacingLeft=4;spacingRight=4;overflow=hidden;points=[[0,0.5],[1,0.5]];portConstraint=eastwest;rotatable=0;whiteSpace=wrap;html=1;" vertex="1" parent="hmsVtgDOntfeZ75-fV9C-1">
          <mxGeometry y="270" width="200" height="30" as="geometry" />
        </mxCell>
        <mxCell id="hmsVtgDOntfeZ75-fV9C-59" value="Status" style="text;strokeColor=none;fillColor=none;align=left;verticalAlign=middle;spacingLeft=4;spacingRight=4;overflow=hidden;points=[[0,0.5],[1,0.5]];portConstraint=eastwest;rotatable=0;whiteSpace=wrap;html=1;" vertex="1" parent="hmsVtgDOntfeZ75-fV9C-1">
          <mxGeometry y="300" width="200" height="30" as="geometry" />
        </mxCell>
        <mxCell id="hmsVtgDOntfeZ75-fV9C-17" value="User_Relation" style="swimlane;fontStyle=0;childLayout=stackLayout;horizontal=1;startSize=30;horizontalStack=0;resizeParent=1;resizeParentMax=0;resizeLast=0;collapsible=1;marginBottom=0;whiteSpace=wrap;html=1;swimlaneFillColor=none;strokeWidth=1;resizeWidth=1;resizeHeight=1;fillColor=#d80073;strokeColor=#A50040;fontColor=#ffffff;" vertex="1" parent="1">
          <mxGeometry x="945" y="285" width="200" height="180" as="geometry" />
        </mxCell>
        <mxCell id="hmsVtgDOntfeZ75-fV9C-37" value="ID" style="text;strokeColor=none;fillColor=none;align=left;verticalAlign=middle;spacingLeft=4;spacingRight=4;overflow=hidden;points=[[0,0.5],[1,0.5]];portConstraint=eastwest;rotatable=0;whiteSpace=wrap;html=1;" vertex="1" parent="hmsVtgDOntfeZ75-fV9C-17">
          <mxGeometry y="30" width="200" height="30" as="geometry" />
        </mxCell>
        <mxCell id="hmsVtgDOntfeZ75-fV9C-18" value="UserID_1" style="text;strokeColor=none;fillColor=none;align=left;verticalAlign=middle;spacingLeft=4;spacingRight=4;overflow=hidden;points=[[0,0.5],[1,0.5]];portConstraint=eastwest;rotatable=0;whiteSpace=wrap;html=1;" vertex="1" parent="hmsVtgDOntfeZ75-fV9C-17">
          <mxGeometry y="60" width="200" height="30" as="geometry" />
        </mxCell>
        <mxCell id="hmsVtgDOntfeZ75-fV9C-19" value="UserID_2" style="text;strokeColor=none;fillColor=none;align=left;verticalAlign=middle;spacingLeft=4;spacingRight=4;overflow=hidden;points=[[0,0.5],[1,0.5]];portConstraint=eastwest;rotatable=0;whiteSpace=wrap;html=1;" vertex="1" parent="hmsVtgDOntfeZ75-fV9C-17">
          <mxGeometry y="90" width="200" height="30" as="geometry" />
        </mxCell>
        <mxCell id="hmsVtgDOntfeZ75-fV9C-20" value="Like" style="text;strokeColor=none;fillColor=none;align=left;verticalAlign=middle;spacingLeft=4;spacingRight=4;overflow=hidden;points=[[0,0.5],[1,0.5]];portConstraint=eastwest;rotatable=0;whiteSpace=wrap;html=1;" vertex="1" parent="hmsVtgDOntfeZ75-fV9C-17">
          <mxGeometry y="120" width="200" height="30" as="geometry" />
        </mxCell>
        <mxCell id="hmsVtgDOntfeZ75-fV9C-21" value="Block" style="text;strokeColor=none;fillColor=none;align=left;verticalAlign=middle;spacingLeft=4;spacingRight=4;overflow=hidden;points=[[0,0.5],[1,0.5]];portConstraint=eastwest;rotatable=0;whiteSpace=wrap;html=1;" vertex="1" parent="hmsVtgDOntfeZ75-fV9C-17">
          <mxGeometry y="150" width="200" height="30" as="geometry" />
        </mxCell>
        <mxCell id="hmsVtgDOntfeZ75-fV9C-25" style="edgeStyle=orthogonalEdgeStyle;rounded=0;orthogonalLoop=1;jettySize=auto;html=1;" edge="1" parent="1" source="hmsVtgDOntfeZ75-fV9C-18" target="hmsVtgDOntfeZ75-fV9C-2">
          <mxGeometry relative="1" as="geometry" />
        </mxCell>
        <mxCell id="hmsVtgDOntfeZ75-fV9C-27" value="Fama&amp;nbsp;&lt;span style=&quot;background-color: initial;&quot;&gt;Rating&lt;/span&gt;" style="swimlane;fontStyle=0;childLayout=stackLayout;horizontal=1;startSize=30;horizontalStack=0;resizeParent=1;resizeParentMax=0;resizeLast=0;collapsible=1;marginBottom=0;whiteSpace=wrap;html=1;swimlaneFillColor=none;strokeWidth=1;resizeWidth=1;resizeHeight=1;fillColor=#f8cecc;strokeColor=#b85450;" vertex="1" parent="1">
          <mxGeometry x="90" y="105" width="285" height="150" as="geometry" />
        </mxCell>
        <mxCell id="hmsVtgDOntfeZ75-fV9C-34" value="O Rank Será Medido pela Soma de Likes" style="text;strokeColor=#6c8ebf;fillColor=#dae8fc;align=left;verticalAlign=middle;spacingLeft=4;spacingRight=4;overflow=hidden;points=[[0,0.5],[1,0.5]];portConstraint=eastwest;rotatable=0;whiteSpace=wrap;html=1;" vertex="1" parent="hmsVtgDOntfeZ75-fV9C-27">
          <mxGeometry y="30" width="285" height="30" as="geometry" />
        </mxCell>
        <mxCell id="hmsVtgDOntfeZ75-fV9C-28" value="Select Count(*)&lt;div&gt;From User_Relation&amp;nbsp;&lt;/div&gt;&lt;div&gt;Where Like = true&lt;/div&gt;&lt;div&gt;&lt;span style=&quot;background-color: initial;&quot;&gt;Group By UserID_2&lt;/span&gt;&lt;/div&gt;" style="text;strokeColor=none;fillColor=none;align=left;verticalAlign=middle;spacingLeft=4;spacingRight=4;overflow=hidden;points=[[0,0.5],[1,0.5]];portConstraint=eastwest;rotatable=0;whiteSpace=wrap;html=1;" vertex="1" parent="hmsVtgDOntfeZ75-fV9C-27">
          <mxGeometry y="60" width="285" height="90" as="geometry" />
        </mxCell>
        <mxCell id="hmsVtgDOntfeZ75-fV9C-32" value="Chat" style="swimlane;fontStyle=0;childLayout=stackLayout;horizontal=1;startSize=30;horizontalStack=0;resizeParent=1;resizeParentMax=0;resizeLast=0;collapsible=1;marginBottom=0;whiteSpace=wrap;html=1;swimlaneFillColor=none;strokeWidth=1;resizeWidth=1;resizeHeight=1;fillColor=#008a00;fontColor=#ffffff;strokeColor=#005700;" vertex="1" parent="1">
          <mxGeometry x="945" y="525" width="200" height="120" as="geometry" />
        </mxCell>
        <mxCell id="hmsVtgDOntfeZ75-fV9C-38" value="ID" style="text;strokeColor=none;fillColor=none;align=left;verticalAlign=middle;spacingLeft=4;spacingRight=4;overflow=hidden;points=[[0,0.5],[1,0.5]];portConstraint=eastwest;rotatable=0;whiteSpace=wrap;html=1;" vertex="1" parent="hmsVtgDOntfeZ75-fV9C-32">
          <mxGeometry y="30" width="200" height="30" as="geometry" />
        </mxCell>
        <mxCell id="hmsVtgDOntfeZ75-fV9C-39" value="UserId_1" style="text;strokeColor=none;fillColor=none;align=left;verticalAlign=middle;spacingLeft=4;spacingRight=4;overflow=hidden;points=[[0,0.5],[1,0.5]];portConstraint=eastwest;rotatable=0;whiteSpace=wrap;html=1;" vertex="1" parent="hmsVtgDOntfeZ75-fV9C-32">
          <mxGeometry y="60" width="200" height="30" as="geometry" />
        </mxCell>
        <mxCell id="hmsVtgDOntfeZ75-fV9C-40" value="UserId_2" style="text;strokeColor=none;fillColor=none;align=left;verticalAlign=middle;spacingLeft=4;spacingRight=4;overflow=hidden;points=[[0,0.5],[1,0.5]];portConstraint=eastwest;rotatable=0;whiteSpace=wrap;html=1;" vertex="1" parent="hmsVtgDOntfeZ75-fV9C-32">
          <mxGeometry y="90" width="200" height="30" as="geometry" />
        </mxCell>
        <mxCell id="hmsVtgDOntfeZ75-fV9C-41" style="edgeStyle=orthogonalEdgeStyle;rounded=0;orthogonalLoop=1;jettySize=auto;html=1;entryX=0;entryY=0.5;entryDx=0;entryDy=0;exitX=0;exitY=0.5;exitDx=0;exitDy=0;" edge="1" parent="1" source="hmsVtgDOntfeZ75-fV9C-39">
          <mxGeometry relative="1" as="geometry">
            <mxPoint x="930" y="645" as="sourcePoint" />
            <mxPoint x="845" y="345" as="targetPoint" />
            <Array as="points">
              <mxPoint x="945" y="585" />
              <mxPoint x="870" y="585" />
              <mxPoint x="870" y="345" />
            </Array>
          </mxGeometry>
        </mxCell>
        <mxCell id="hmsVtgDOntfeZ75-fV9C-44" value="Mensagens" style="swimlane;fontStyle=0;childLayout=stackLayout;horizontal=1;startSize=30;horizontalStack=0;resizeParent=1;resizeParentMax=0;resizeLast=0;collapsible=1;marginBottom=0;whiteSpace=wrap;html=1;swimlaneFillColor=none;strokeWidth=1;resizeWidth=1;resizeHeight=1;fillColor=#008a00;fontColor=#ffffff;strokeColor=#005700;" vertex="1" parent="1">
          <mxGeometry x="1215" y="495" width="200" height="180" as="geometry" />
        </mxCell>
        <mxCell id="hmsVtgDOntfeZ75-fV9C-45" value="ID" style="text;strokeColor=none;fillColor=none;align=left;verticalAlign=middle;spacingLeft=4;spacingRight=4;overflow=hidden;points=[[0,0.5],[1,0.5]];portConstraint=eastwest;rotatable=0;whiteSpace=wrap;html=1;" vertex="1" parent="hmsVtgDOntfeZ75-fV9C-44">
          <mxGeometry y="30" width="200" height="30" as="geometry" />
        </mxCell>
        <mxCell id="hmsVtgDOntfeZ75-fV9C-46" value="UserID" style="text;strokeColor=none;fillColor=none;align=left;verticalAlign=middle;spacingLeft=4;spacingRight=4;overflow=hidden;points=[[0,0.5],[1,0.5]];portConstraint=eastwest;rotatable=0;whiteSpace=wrap;html=1;" vertex="1" parent="hmsVtgDOntfeZ75-fV9C-44">
          <mxGeometry y="60" width="200" height="30" as="geometry" />
        </mxCell>
        <mxCell id="hmsVtgDOntfeZ75-fV9C-47" value="ChatID" style="text;strokeColor=none;fillColor=none;align=left;verticalAlign=middle;spacingLeft=4;spacingRight=4;overflow=hidden;points=[[0,0.5],[1,0.5]];portConstraint=eastwest;rotatable=0;whiteSpace=wrap;html=1;" vertex="1" parent="hmsVtgDOntfeZ75-fV9C-44">
          <mxGeometry y="90" width="200" height="30" as="geometry" />
        </mxCell>
        <mxCell id="hmsVtgDOntfeZ75-fV9C-49" value="&lt;div&gt;Message&lt;/div&gt;" style="text;strokeColor=none;fillColor=none;align=left;verticalAlign=middle;spacingLeft=4;spacingRight=4;overflow=hidden;points=[[0,0.5],[1,0.5]];portConstraint=eastwest;rotatable=0;whiteSpace=wrap;html=1;" vertex="1" parent="hmsVtgDOntfeZ75-fV9C-44">
          <mxGeometry y="120" width="200" height="30" as="geometry" />
        </mxCell>
        <mxCell id="hmsVtgDOntfeZ75-fV9C-48" value="&lt;div&gt;Date&lt;/div&gt;" style="text;strokeColor=none;fillColor=none;align=left;verticalAlign=middle;spacingLeft=4;spacingRight=4;overflow=hidden;points=[[0,0.5],[1,0.5]];portConstraint=eastwest;rotatable=0;whiteSpace=wrap;html=1;" vertex="1" parent="hmsVtgDOntfeZ75-fV9C-44">
          <mxGeometry y="150" width="200" height="30" as="geometry" />
        </mxCell>
        <mxCell id="hmsVtgDOntfeZ75-fV9C-51" style="edgeStyle=orthogonalEdgeStyle;rounded=0;orthogonalLoop=1;jettySize=auto;html=1;exitX=0;exitY=0.5;exitDx=0;exitDy=0;entryX=1;entryY=0.5;entryDx=0;entryDy=0;" edge="1" parent="1" source="hmsVtgDOntfeZ75-fV9C-47" target="hmsVtgDOntfeZ75-fV9C-38">
          <mxGeometry relative="1" as="geometry" />
        </mxCell>
        <mxCell id="hmsVtgDOntfeZ75-fV9C-52" value="Photo_Likes" style="swimlane;fontStyle=0;childLayout=stackLayout;horizontal=1;startSize=30;horizontalStack=0;resizeParent=1;resizeParentMax=0;resizeLast=0;collapsible=1;marginBottom=0;whiteSpace=wrap;html=1;swimlaneFillColor=none;strokeWidth=1;resizeWidth=1;resizeHeight=1;fillColor=#d5e8d4;strokeColor=#82b366;" vertex="1" parent="1">
          <mxGeometry x="-30" y="810" width="200" height="120" as="geometry" />
        </mxCell>
        <mxCell id="hmsVtgDOntfeZ75-fV9C-53" value="ID" style="text;strokeColor=none;fillColor=none;align=left;verticalAlign=middle;spacingLeft=4;spacingRight=4;overflow=hidden;points=[[0,0.5],[1,0.5]];portConstraint=eastwest;rotatable=0;whiteSpace=wrap;html=1;" vertex="1" parent="hmsVtgDOntfeZ75-fV9C-52">
          <mxGeometry y="30" width="200" height="30" as="geometry" />
        </mxCell>
        <mxCell id="hmsVtgDOntfeZ75-fV9C-54" value="UserID" style="text;strokeColor=none;fillColor=none;align=left;verticalAlign=middle;spacingLeft=4;spacingRight=4;overflow=hidden;points=[[0,0.5],[1,0.5]];portConstraint=eastwest;rotatable=0;whiteSpace=wrap;html=1;" vertex="1" parent="hmsVtgDOntfeZ75-fV9C-52">
          <mxGeometry y="60" width="200" height="30" as="geometry" />
        </mxCell>
        <mxCell id="hmsVtgDOntfeZ75-fV9C-57" value="Like" style="text;strokeColor=none;fillColor=none;align=left;verticalAlign=middle;spacingLeft=4;spacingRight=4;overflow=hidden;points=[[0,0.5],[1,0.5]];portConstraint=eastwest;rotatable=0;whiteSpace=wrap;html=1;" vertex="1" parent="hmsVtgDOntfeZ75-fV9C-52">
          <mxGeometry y="90" width="200" height="30" as="geometry" />
        </mxCell>
        <mxCell id="hmsVtgDOntfeZ75-fV9C-61" style="edgeStyle=orthogonalEdgeStyle;rounded=0;orthogonalLoop=1;jettySize=auto;html=1;entryX=1;entryY=0.5;entryDx=0;entryDy=0;" edge="1" parent="1" source="hmsVtgDOntfeZ75-fV9C-46" target="hmsVtgDOntfeZ75-fV9C-2">
          <mxGeometry relative="1" as="geometry">
            <Array as="points">
              <mxPoint x="1200" y="570" />
              <mxPoint x="1200" y="495" />
              <mxPoint x="870" y="495" />
              <mxPoint x="870" y="345" />
            </Array>
          </mxGeometry>
        </mxCell>
        <mxCell id="hmsVtgDOntfeZ75-fV9C-62" value="Gender" style="swimlane;fontStyle=0;childLayout=stackLayout;horizontal=1;startSize=30;horizontalStack=0;resizeParent=1;resizeParentMax=0;resizeLast=0;collapsible=1;marginBottom=0;whiteSpace=wrap;html=1;swimlaneFillColor=none;strokeWidth=1;resizeWidth=1;resizeHeight=1;fillColor=#ffe6cc;strokeColor=#d79b00;" vertex="1" parent="1">
          <mxGeometry x="-30" y="345" width="200" height="90" as="geometry" />
        </mxCell>
        <mxCell id="hmsVtgDOntfeZ75-fV9C-63" value="ID" style="text;strokeColor=none;fillColor=none;align=left;verticalAlign=middle;spacingLeft=4;spacingRight=4;overflow=hidden;points=[[0,0.5],[1,0.5]];portConstraint=eastwest;rotatable=0;whiteSpace=wrap;html=1;" vertex="1" parent="hmsVtgDOntfeZ75-fV9C-62">
          <mxGeometry y="30" width="200" height="30" as="geometry" />
        </mxCell>
        <mxCell id="hmsVtgDOntfeZ75-fV9C-64" value="Gender" style="text;strokeColor=none;fillColor=none;align=left;verticalAlign=middle;spacingLeft=4;spacingRight=4;overflow=hidden;points=[[0,0.5],[1,0.5]];portConstraint=eastwest;rotatable=0;whiteSpace=wrap;html=1;" vertex="1" parent="hmsVtgDOntfeZ75-fV9C-62">
          <mxGeometry y="60" width="200" height="30" as="geometry" />
        </mxCell>
        <mxCell id="hmsVtgDOntfeZ75-fV9C-66" value="User_Gender_Preferences" style="swimlane;fontStyle=0;childLayout=stackLayout;horizontal=1;startSize=30;horizontalStack=0;resizeParent=1;resizeParentMax=0;resizeLast=0;collapsible=1;marginBottom=0;whiteSpace=wrap;html=1;swimlaneFillColor=none;strokeWidth=1;resizeWidth=1;resizeHeight=1;fillColor=#ffe6cc;strokeColor=#d79b00;" vertex="1" parent="1">
          <mxGeometry x="255" y="345" width="200" height="90" as="geometry" />
        </mxCell>
        <mxCell id="hmsVtgDOntfeZ75-fV9C-68" value="UserID" style="text;strokeColor=none;fillColor=none;align=left;verticalAlign=middle;spacingLeft=4;spacingRight=4;overflow=hidden;points=[[0,0.5],[1,0.5]];portConstraint=eastwest;rotatable=0;whiteSpace=wrap;html=1;" vertex="1" parent="hmsVtgDOntfeZ75-fV9C-66">
          <mxGeometry y="30" width="200" height="30" as="geometry" />
        </mxCell>
        <mxCell id="hmsVtgDOntfeZ75-fV9C-69" value="GendersID" style="text;strokeColor=none;fillColor=none;align=left;verticalAlign=middle;spacingLeft=4;spacingRight=4;overflow=hidden;points=[[0,0.5],[1,0.5]];portConstraint=eastwest;rotatable=0;whiteSpace=wrap;html=1;" vertex="1" parent="hmsVtgDOntfeZ75-fV9C-66">
          <mxGeometry y="60" width="200" height="30" as="geometry" />
        </mxCell>
        <mxCell id="hmsVtgDOntfeZ75-fV9C-70" style="edgeStyle=orthogonalEdgeStyle;rounded=0;orthogonalLoop=1;jettySize=auto;html=1;entryX=0;entryY=0.5;entryDx=0;entryDy=0;" edge="1" parent="1" source="hmsVtgDOntfeZ75-fV9C-68" target="hmsVtgDOntfeZ75-fV9C-2">
          <mxGeometry relative="1" as="geometry">
            <mxPoint x="15" y="300" as="targetPoint" />
          </mxGeometry>
        </mxCell>
        <mxCell id="hmsVtgDOntfeZ75-fV9C-80" value="User_Interest" style="swimlane;fontStyle=0;childLayout=stackLayout;horizontal=1;startSize=30;horizontalStack=0;resizeParent=1;resizeParentMax=0;resizeLast=0;collapsible=1;marginBottom=0;whiteSpace=wrap;html=1;swimlaneFillColor=none;strokeWidth=1;resizeWidth=1;resizeHeight=1;fillColor=#e1d5e7;strokeColor=#9673a6;" vertex="1" parent="1">
          <mxGeometry x="255" y="510" width="200" height="90" as="geometry" />
        </mxCell>
        <mxCell id="hmsVtgDOntfeZ75-fV9C-81" value="UserID" style="text;strokeColor=none;fillColor=none;align=left;verticalAlign=middle;spacingLeft=4;spacingRight=4;overflow=hidden;points=[[0,0.5],[1,0.5]];portConstraint=eastwest;rotatable=0;whiteSpace=wrap;html=1;" vertex="1" parent="hmsVtgDOntfeZ75-fV9C-80">
          <mxGeometry y="30" width="200" height="30" as="geometry" />
        </mxCell>
        <mxCell id="hmsVtgDOntfeZ75-fV9C-82" value="InterestID" style="text;strokeColor=none;fillColor=none;align=left;verticalAlign=middle;spacingLeft=4;spacingRight=4;overflow=hidden;points=[[0,0.5],[1,0.5]];portConstraint=eastwest;rotatable=0;whiteSpace=wrap;html=1;" vertex="1" parent="hmsVtgDOntfeZ75-fV9C-80">
          <mxGeometry y="60" width="200" height="30" as="geometry" />
        </mxCell>
        <mxCell id="hmsVtgDOntfeZ75-fV9C-83" value="Interest" style="swimlane;fontStyle=0;childLayout=stackLayout;horizontal=1;startSize=30;horizontalStack=0;resizeParent=1;resizeParentMax=0;resizeLast=0;collapsible=1;marginBottom=0;whiteSpace=wrap;html=1;swimlaneFillColor=none;strokeWidth=1;resizeWidth=1;resizeHeight=1;fillColor=#e1d5e7;strokeColor=#9673a6;" vertex="1" parent="1">
          <mxGeometry x="-30" y="510" width="200" height="90" as="geometry" />
        </mxCell>
        <mxCell id="hmsVtgDOntfeZ75-fV9C-84" value="ID" style="text;strokeColor=none;fillColor=none;align=left;verticalAlign=middle;spacingLeft=4;spacingRight=4;overflow=hidden;points=[[0,0.5],[1,0.5]];portConstraint=eastwest;rotatable=0;whiteSpace=wrap;html=1;" vertex="1" parent="hmsVtgDOntfeZ75-fV9C-83">
          <mxGeometry y="30" width="200" height="30" as="geometry" />
        </mxCell>
        <mxCell id="hmsVtgDOntfeZ75-fV9C-85" value="Interest" style="text;strokeColor=none;fillColor=none;align=left;verticalAlign=middle;spacingLeft=4;spacingRight=4;overflow=hidden;points=[[0,0.5],[1,0.5]];portConstraint=eastwest;rotatable=0;whiteSpace=wrap;html=1;" vertex="1" parent="hmsVtgDOntfeZ75-fV9C-83">
          <mxGeometry y="60" width="200" height="30" as="geometry" />
        </mxCell>
        <mxCell id="hmsVtgDOntfeZ75-fV9C-86" style="edgeStyle=orthogonalEdgeStyle;rounded=0;orthogonalLoop=1;jettySize=auto;html=1;entryX=0;entryY=0.5;entryDx=0;entryDy=0;exitX=1;exitY=0.5;exitDx=0;exitDy=0;" edge="1" parent="1" source="hmsVtgDOntfeZ75-fV9C-81" target="hmsVtgDOntfeZ75-fV9C-2">
          <mxGeometry relative="1" as="geometry">
            <mxPoint x="525" y="555" as="sourcePoint" />
            <Array as="points">
              <mxPoint x="570" y="555" />
              <mxPoint x="570" y="345" />
            </Array>
          </mxGeometry>
        </mxCell>
        <mxCell id="hmsVtgDOntfeZ75-fV9C-87" style="edgeStyle=orthogonalEdgeStyle;rounded=0;orthogonalLoop=1;jettySize=auto;html=1;entryX=1;entryY=0.5;entryDx=0;entryDy=0;exitX=0;exitY=0.5;exitDx=0;exitDy=0;" edge="1" parent="1" source="hmsVtgDOntfeZ75-fV9C-82" target="hmsVtgDOntfeZ75-fV9C-84">
          <mxGeometry relative="1" as="geometry">
            <mxPoint x="255" y="585" as="sourcePoint" />
            <mxPoint x="195" y="735" as="targetPoint" />
            <Array as="points">
              <mxPoint x="210" y="585" />
              <mxPoint x="210" y="555" />
            </Array>
          </mxGeometry>
        </mxCell>
        <mxCell id="hmsVtgDOntfeZ75-fV9C-88" value="User_Photos" style="swimlane;fontStyle=0;childLayout=stackLayout;horizontal=1;startSize=30;horizontalStack=0;resizeParent=1;resizeParentMax=0;resizeLast=0;collapsible=1;marginBottom=0;whiteSpace=wrap;html=1;swimlaneFillColor=none;strokeWidth=1;resizeWidth=1;resizeHeight=1;fillColor=#d5e8d4;strokeColor=#82b366;" vertex="1" parent="1">
          <mxGeometry x="255" y="645" width="200" height="90" as="geometry" />
        </mxCell>
        <mxCell id="hmsVtgDOntfeZ75-fV9C-100" value="UserID" style="text;strokeColor=none;fillColor=none;align=left;verticalAlign=middle;spacingLeft=4;spacingRight=4;overflow=hidden;points=[[0,0.5],[1,0.5]];portConstraint=eastwest;rotatable=0;whiteSpace=wrap;html=1;" vertex="1" parent="hmsVtgDOntfeZ75-fV9C-88">
          <mxGeometry y="30" width="200" height="30" as="geometry" />
        </mxCell>
        <mxCell id="hmsVtgDOntfeZ75-fV9C-91" value="PhotoID" style="text;strokeColor=none;fillColor=none;align=left;verticalAlign=middle;spacingLeft=4;spacingRight=4;overflow=hidden;points=[[0,0.5],[1,0.5]];portConstraint=eastwest;rotatable=0;whiteSpace=wrap;html=1;" vertex="1" parent="hmsVtgDOntfeZ75-fV9C-88">
          <mxGeometry y="60" width="200" height="30" as="geometry" />
        </mxCell>
        <mxCell id="hmsVtgDOntfeZ75-fV9C-96" value="Photo" style="swimlane;fontStyle=0;childLayout=stackLayout;horizontal=1;startSize=30;horizontalStack=0;resizeParent=1;resizeParentMax=0;resizeLast=0;collapsible=1;marginBottom=0;whiteSpace=wrap;html=1;swimlaneFillColor=none;strokeWidth=1;resizeWidth=1;resizeHeight=1;fillColor=#d5e8d4;strokeColor=#82b366;" vertex="1" parent="1">
          <mxGeometry x="-30" y="660" width="200" height="90" as="geometry" />
        </mxCell>
        <mxCell id="hmsVtgDOntfeZ75-fV9C-97" value="ID" style="text;strokeColor=none;fillColor=none;align=left;verticalAlign=middle;spacingLeft=4;spacingRight=4;overflow=hidden;points=[[0,0.5],[1,0.5]];portConstraint=eastwest;rotatable=0;whiteSpace=wrap;html=1;" vertex="1" parent="hmsVtgDOntfeZ75-fV9C-96">
          <mxGeometry y="30" width="200" height="30" as="geometry" />
        </mxCell>
        <mxCell id="hmsVtgDOntfeZ75-fV9C-99" value="Photo1" style="text;strokeColor=none;fillColor=none;align=left;verticalAlign=middle;spacingLeft=4;spacingRight=4;overflow=hidden;points=[[0,0.5],[1,0.5]];portConstraint=eastwest;rotatable=0;whiteSpace=wrap;html=1;" vertex="1" parent="hmsVtgDOntfeZ75-fV9C-96">
          <mxGeometry y="60" width="200" height="30" as="geometry" />
        </mxCell>
        <mxCell id="hmsVtgDOntfeZ75-fV9C-101" style="edgeStyle=orthogonalEdgeStyle;rounded=0;orthogonalLoop=1;jettySize=auto;html=1;" edge="1" parent="1" source="hmsVtgDOntfeZ75-fV9C-91" target="hmsVtgDOntfeZ75-fV9C-97">
          <mxGeometry relative="1" as="geometry">
            <Array as="points">
              <mxPoint x="225" y="720" />
              <mxPoint x="225" y="705" />
            </Array>
          </mxGeometry>
        </mxCell>
        <mxCell id="hmsVtgDOntfeZ75-fV9C-102" style="edgeStyle=orthogonalEdgeStyle;rounded=0;orthogonalLoop=1;jettySize=auto;html=1;" edge="1" parent="1" source="hmsVtgDOntfeZ75-fV9C-100" target="hmsVtgDOntfeZ75-fV9C-2">
          <mxGeometry relative="1" as="geometry" />
        </mxCell>
        <mxCell id="hmsVtgDOntfeZ75-fV9C-103" value="Historic_Views" style="swimlane;fontStyle=0;childLayout=stackLayout;horizontal=1;startSize=30;horizontalStack=0;resizeParent=1;resizeParentMax=0;resizeLast=0;collapsible=1;marginBottom=0;whiteSpace=wrap;html=1;swimlaneFillColor=none;strokeWidth=1;resizeWidth=1;resizeHeight=1;fillColor=#1ba1e2;fontColor=#ffffff;strokeColor=#006EAF;" vertex="1" parent="1">
          <mxGeometry x="645" y="105" width="200" height="150" as="geometry" />
        </mxCell>
        <mxCell id="hmsVtgDOntfeZ75-fV9C-104" value="ID" style="text;strokeColor=none;fillColor=none;align=left;verticalAlign=middle;spacingLeft=4;spacingRight=4;overflow=hidden;points=[[0,0.5],[1,0.5]];portConstraint=eastwest;rotatable=0;whiteSpace=wrap;html=1;" vertex="1" parent="hmsVtgDOntfeZ75-fV9C-103">
          <mxGeometry y="30" width="200" height="30" as="geometry" />
        </mxCell>
        <mxCell id="hmsVtgDOntfeZ75-fV9C-107" value="UserID" style="text;strokeColor=none;fillColor=none;align=left;verticalAlign=middle;spacingLeft=4;spacingRight=4;overflow=hidden;points=[[0,0.5],[1,0.5]];portConstraint=eastwest;rotatable=0;whiteSpace=wrap;html=1;" vertex="1" parent="hmsVtgDOntfeZ75-fV9C-103">
          <mxGeometry y="60" width="200" height="30" as="geometry" />
        </mxCell>
        <mxCell id="hmsVtgDOntfeZ75-fV9C-105" value="UserID_Viwer" style="text;strokeColor=none;fillColor=none;align=left;verticalAlign=middle;spacingLeft=4;spacingRight=4;overflow=hidden;points=[[0,0.5],[1,0.5]];portConstraint=eastwest;rotatable=0;whiteSpace=wrap;html=1;" vertex="1" parent="hmsVtgDOntfeZ75-fV9C-103">
          <mxGeometry y="90" width="200" height="30" as="geometry" />
        </mxCell>
        <mxCell id="hmsVtgDOntfeZ75-fV9C-106" value="Date" style="text;strokeColor=none;fillColor=none;align=left;verticalAlign=middle;spacingLeft=4;spacingRight=4;overflow=hidden;points=[[0,0.5],[1,0.5]];portConstraint=eastwest;rotatable=0;whiteSpace=wrap;html=1;" vertex="1" parent="hmsVtgDOntfeZ75-fV9C-103">
          <mxGeometry y="120" width="200" height="30" as="geometry" />
        </mxCell>
        <mxCell id="hmsVtgDOntfeZ75-fV9C-108" style="edgeStyle=orthogonalEdgeStyle;rounded=0;orthogonalLoop=1;jettySize=auto;html=1;" edge="1" parent="1" source="hmsVtgDOntfeZ75-fV9C-107" target="hmsVtgDOntfeZ75-fV9C-2">
          <mxGeometry relative="1" as="geometry">
            <Array as="points">
              <mxPoint x="615" y="180" />
              <mxPoint x="615" y="345" />
            </Array>
          </mxGeometry>
        </mxCell>
        <mxCell id="hmsVtgDOntfeZ75-fV9C-109" style="edgeStyle=orthogonalEdgeStyle;rounded=0;orthogonalLoop=1;jettySize=auto;html=1;entryX=1;entryY=0.5;entryDx=0;entryDy=0;" edge="1" parent="1" source="hmsVtgDOntfeZ75-fV9C-105" target="hmsVtgDOntfeZ75-fV9C-2">
          <mxGeometry relative="1" as="geometry">
            <Array as="points">
              <mxPoint x="885" y="210" />
              <mxPoint x="885" y="345" />
            </Array>
          </mxGeometry>
        </mxCell>
        <mxCell id="hmsVtgDOntfeZ75-fV9C-114" style="edgeStyle=orthogonalEdgeStyle;rounded=0;orthogonalLoop=1;jettySize=auto;html=1;exitX=1;exitY=0.5;exitDx=0;exitDy=0;" edge="1" parent="1" source="hmsVtgDOntfeZ75-fV9C-97" target="hmsVtgDOntfeZ75-fV9C-53">
          <mxGeometry relative="1" as="geometry">
            <Array as="points">
              <mxPoint x="225" y="705" />
              <mxPoint x="225" y="855" />
            </Array>
          </mxGeometry>
        </mxCell>
        <mxCell id="hmsVtgDOntfeZ75-fV9C-116" style="edgeStyle=orthogonalEdgeStyle;rounded=0;orthogonalLoop=1;jettySize=auto;html=1;exitX=0;exitY=0.5;exitDx=0;exitDy=0;entryX=1;entryY=0.5;entryDx=0;entryDy=0;" edge="1" parent="1" source="hmsVtgDOntfeZ75-fV9C-69" target="hmsVtgDOntfeZ75-fV9C-63">
          <mxGeometry relative="1" as="geometry" />
        </mxCell>
        <mxCell id="hmsVtgDOntfeZ75-fV9C-118" style="edgeStyle=orthogonalEdgeStyle;rounded=0;orthogonalLoop=1;jettySize=auto;html=1;exitX=0;exitY=0.5;exitDx=0;exitDy=0;" edge="1" parent="1" source="hmsVtgDOntfeZ75-fV9C-19" target="hmsVtgDOntfeZ75-fV9C-2">
          <mxGeometry relative="1" as="geometry" />
        </mxCell>
        <mxCell id="hmsVtgDOntfeZ75-fV9C-120" value="Notification" style="swimlane;fontStyle=0;childLayout=stackLayout;horizontal=1;startSize=30;horizontalStack=0;resizeParent=1;resizeParentMax=0;resizeLast=0;collapsible=1;marginBottom=0;whiteSpace=wrap;html=1;swimlaneFillColor=none;strokeWidth=1;resizeWidth=1;resizeHeight=1;fillColor=#e51400;strokeColor=#B20000;fontColor=#ffffff;" vertex="1" parent="1">
          <mxGeometry x="645" y="705" width="200" height="150" as="geometry" />
        </mxCell>
        <mxCell id="hmsVtgDOntfeZ75-fV9C-121" value="ID" style="text;strokeColor=none;fillColor=none;align=left;verticalAlign=middle;spacingLeft=4;spacingRight=4;overflow=hidden;points=[[0,0.5],[1,0.5]];portConstraint=eastwest;rotatable=0;whiteSpace=wrap;html=1;" vertex="1" parent="hmsVtgDOntfeZ75-fV9C-120">
          <mxGeometry y="30" width="200" height="30" as="geometry" />
        </mxCell>
        <mxCell id="hmsVtgDOntfeZ75-fV9C-122" value="UserID" style="text;strokeColor=none;fillColor=none;align=left;verticalAlign=middle;spacingLeft=4;spacingRight=4;overflow=hidden;points=[[0,0.5],[1,0.5]];portConstraint=eastwest;rotatable=0;whiteSpace=wrap;html=1;" vertex="1" parent="hmsVtgDOntfeZ75-fV9C-120">
          <mxGeometry y="60" width="200" height="30" as="geometry" />
        </mxCell>
        <mxCell id="hmsVtgDOntfeZ75-fV9C-123" value="Message" style="text;strokeColor=none;fillColor=none;align=left;verticalAlign=middle;spacingLeft=4;spacingRight=4;overflow=hidden;points=[[0,0.5],[1,0.5]];portConstraint=eastwest;rotatable=0;whiteSpace=wrap;html=1;" vertex="1" parent="hmsVtgDOntfeZ75-fV9C-120">
          <mxGeometry y="90" width="200" height="30" as="geometry" />
        </mxCell>
        <mxCell id="hmsVtgDOntfeZ75-fV9C-125" value="NotificationType" style="text;strokeColor=none;fillColor=none;align=left;verticalAlign=middle;spacingLeft=4;spacingRight=4;overflow=hidden;points=[[0,0.5],[1,0.5]];portConstraint=eastwest;rotatable=0;whiteSpace=wrap;html=1;" vertex="1" parent="hmsVtgDOntfeZ75-fV9C-120">
          <mxGeometry y="120" width="200" height="30" as="geometry" />
        </mxCell>
        <mxCell id="hmsVtgDOntfeZ75-fV9C-124" style="edgeStyle=orthogonalEdgeStyle;rounded=0;orthogonalLoop=1;jettySize=auto;html=1;entryX=0;entryY=0.5;entryDx=0;entryDy=0;" edge="1" parent="1" source="hmsVtgDOntfeZ75-fV9C-122" target="hmsVtgDOntfeZ75-fV9C-2">
          <mxGeometry relative="1" as="geometry" />
        </mxCell>
        <mxCell id="hmsVtgDOntfeZ75-fV9C-126" value="Notification_Type" style="swimlane;fontStyle=0;childLayout=stackLayout;horizontal=1;startSize=30;horizontalStack=0;resizeParent=1;resizeParentMax=0;resizeLast=0;collapsible=1;marginBottom=0;whiteSpace=wrap;html=1;swimlaneFillColor=none;strokeWidth=1;resizeWidth=1;resizeHeight=1;fillColor=#e51400;fontColor=#ffffff;strokeColor=#B20000;" vertex="1" parent="1">
          <mxGeometry x="645" y="900" width="200" height="90" as="geometry" />
        </mxCell>
        <mxCell id="hmsVtgDOntfeZ75-fV9C-127" value="IID&lt;span style=&quot;white-space: pre;&quot;&gt;&#x9;&lt;/span&gt;" style="text;strokeColor=none;fillColor=none;align=left;verticalAlign=middle;spacingLeft=4;spacingRight=4;overflow=hidden;points=[[0,0.5],[1,0.5]];portConstraint=eastwest;rotatable=0;whiteSpace=wrap;html=1;" vertex="1" parent="hmsVtgDOntfeZ75-fV9C-126">
          <mxGeometry y="30" width="200" height="30" as="geometry" />
        </mxCell>
        <mxCell id="hmsVtgDOntfeZ75-fV9C-128" value="Notification" style="text;strokeColor=none;fillColor=none;align=left;verticalAlign=middle;spacingLeft=4;spacingRight=4;overflow=hidden;points=[[0,0.5],[1,0.5]];portConstraint=eastwest;rotatable=0;whiteSpace=wrap;html=1;" vertex="1" parent="hmsVtgDOntfeZ75-fV9C-126">
          <mxGeometry y="60" width="200" height="30" as="geometry" />
        </mxCell>
        <mxCell id="hmsVtgDOntfeZ75-fV9C-129" style="edgeStyle=orthogonalEdgeStyle;rounded=0;orthogonalLoop=1;jettySize=auto;html=1;entryX=0;entryY=0.5;entryDx=0;entryDy=0;" edge="1" parent="1" source="hmsVtgDOntfeZ75-fV9C-125" target="hmsVtgDOntfeZ75-fV9C-127">
          <mxGeometry relative="1" as="geometry" />
        </mxCell>
      </root>
    </mxGraphModel>
  </diagram>
</mxfile>
